{"title":"What.Not.To.Wear s08e03 Serrita","uid":7179713,"size":542148802,"categoryP":"video","categoryS":"tv_shows","magnet":"?xt=urn:btih:1b26a8ebf9e877539aca384c4cd092a4a73dc496&amp;dn=What.Not.To.Wear+s08e03+Serrita&amp;tr=udp%3A%2F%2Ftracker.openbittorrent.com%3A80&amp;tr=udp%3A%2F%2Fopen.demonii.com%3A1337&amp;tr=udp%3A%2F%2Ftracker.coppersurfer.tk%3A6969&amp;tr=udp%3A%2F%2Fexodus.desync.com%3A6969","seeders":1,"leechers":0,"uploader":"April22","files":-1,"time":1334227443,"description":"WHAT NOT TO WEAR\n\nTwo fashion stylists and a team of hair and makeup advisors help revamp the look of individuals who have been nominated by their friends for makeovers due to their lamentable appearance, using a $5,000 budget.\n\nSEASON 8 EPISODE 3 - Serrita\n\nSerrita is a hard working Naval officer and mom whose off-duty attire consists of neon cat suits and liquid leggings - even at the playground with her children. Turns out that this brave service woman's kryptonite is a pair of shapeless sweatpants, and she's convinced herself that the only alternative is skintight clothing. The problem is that even her husband wishes that she'd ditch the disco diva and translate her beauty and sex appeal into a look that's more lady and less Lycra. Can one week in style boot camp convince her that she can look like a sexy working mom without looking like a working girl?\n\nMediaInfo:\n\nGeneral\nComplete name                    : C:MOVIESs08e03 Serrita.avi\nFormat                           : AVI\nFormat/Info                      : Audio Video Interleave\nFile size                        : 517 MiB\nDuration                         : 42mn 23s\nOverall bit rate                 : 1 705 Kbps\nWriting application              : Lavf52.39.0\nWriting library                  : VirtualDub build 32842/release\n\nVideo\nID                               : 0\nFormat                           : MPEG-4 Visual\nFormat profile                   : Simple@L1\nFormat settings, BVOP            : No\nFormat settings, QPel            : No\nFormat settings, GMC             : No warppoints\nFormat settings, Matrix          : Default (H.263)\nCodec ID                         : DX50\nCodec ID/Hint                    : DivX 5\nDuration                         : 42mn 23s\nBit rate                         : 1 500 Kbps\nWidth                            : 720 pixels\nHeight                           : 448 pixels\nDisplay aspect ratio             : 1.607\nFrame rate                       : 25.000 fps\nColor space                      : YUV\nChroma subsampling               : 4:2:0\nBit depth                        : 8 bits\nScan type                        : Progressive\nCompression mode                 : Lossy\nBits/(Pixel*Frame)               : 0.186\nStream size                      : 455 MiB (88%)\nWriting library                  : Lavc52.36.0\n\nAudio\nID                               : 1\nFormat                           : MPEG Audio\nFormat version                   : Version 1\nFormat profile                   : Layer 3\nMode                             : Joint stereo\nMode extension                   : MS Stereo\nCodec ID                         : 55\nCodec ID/Hint                    : MP3\nDuration                         : 42mn 23s\nBit rate mode                    : Constant\nBit rate                         : 192 Kbps\nChannel(s)                       : 2 channels\nSampling rate                    : 48.0 KHz\nCompression mode                 : Lossy\nStream size                      : 58.2 MiB (11%)\nAlignment                        : Aligned on interleaves\nInterleave, duration             : 24 ms (0.60 video frame)\nInterleave, preload duration     : 504 ms\n","torrent":{"xt":"urn:btih:1b26a8ebf9e877539aca384c4cd092a4a73dc496","amp;dn":"What.Not.To.Wear+s08e03+Serrita","amp;tr":["udp%3A%2F%2Ftracker.openbittorrent.com%3A80","udp%3A%2F%2Fopen.demonii.com%3A1337","udp%3A%2F%2Ftracker.coppersurfer.tk%3A6969","udp%3A%2F%2Fexodus.desync.com%3A6969"],"infoHash":"1b26a8ebf9e877539aca384c4cd092a4a73dc496","infoHashBuffer":{"type":"Buffer","data":[27,38,168,235,249,232,119,83,154,202,56,76,76,208,146,164,167,61,196,150]},"announce":[],"urlList":[]}}